<svg width="44" height="32" viewBox="0 0 44 32" fill="none" xmlns="http://www.w3.org/2000/svg">
<path d="M31.9355 13.4838V13.9819C31.9355 14.5921 32.0339 15.1983 32.2269 15.7772L33.3549 19.1612H35.4839V11.3547H34.0646C32.8888 11.3548 31.9355 12.308 31.9355 13.4838Z" fill="#5A4146"/>
<path d="M41.6524 14.9581L40.4515 19.1613L34.7741 14.1936C33.9902 14.1936 33.3547 13.5581 33.3547 12.7743C33.3547 11.5985 34.308 10.6453 35.4838 10.6453H40.4515C41.2354 10.6453 41.8708 11.2808 41.8708 12.0646V13.3985C41.8709 13.9259 41.7973 14.4508 41.6524 14.9581Z" fill="#694B4B"/>
<path d="M39.0317 21.2908H34.7737V24.4317H39.0317V21.2908Z" fill="#E6AF78"/>
<path d="M34.7742 22.5939C35.4324 22.8613 36.1501 23.0119 36.9032 23.0119C37.6563 23.0119 38.374 22.8613 39.0322 22.5939V21.2903H34.7742V22.5939Z" fill="#D29B6E"/>
<path d="M42.4557 23.9902L39.032 23.012L36.9031 24.4248L34.7741 23.012L31.3505 23.9902C30.4365 24.2514 29.8064 25.0868 29.8064 26.0373V31.2259C29.8064 31.6178 30.1241 31.9355 30.5161 31.9355H43.2902C43.6822 31.9355 43.9999 31.6178 43.9999 31.2259V26.0373C43.9999 25.0867 43.3697 24.2514 42.4557 23.9902Z" fill="#D5DCED"/>
<path d="M37.6129 31.9355H36.1936L36.5484 24.4314H37.2581L37.6129 31.9355Z" fill="#AFB9D2"/>
<path d="M36.9033 22.0002C34.5516 22.0002 32.6453 20.0937 32.6453 17.7421V16.9107C32.6453 16.5343 32.7948 16.1733 33.0609 15.907L34.3479 14.6201C34.6204 14.3476 34.993 14.1909 35.3782 14.203C37.6467 14.2746 39.6548 14.7606 40.7524 15.8327C41.0212 16.0951 41.1614 16.4623 41.1614 16.8378V17.7421C41.1614 20.0938 39.255 22.0002 36.9033 22.0002Z" fill="#F0C087"/>
<path d="M34.7743 17.0865C34.7743 16.2679 35.4618 15.6172 36.2788 15.6692C37.7115 15.7607 39.8374 16.0001 41.1416 16.6274C41.0991 16.328 40.9705 16.0454 40.7524 15.8324C39.6548 14.7604 37.6467 14.2744 35.3782 14.2028L35.3781 14.2029V14.2028C34.993 14.1907 34.6203 14.3474 34.3479 14.6199L33.061 15.9067C32.7948 16.1728 32.6453 16.5339 32.6453 16.9104V17.7418C32.6453 19.6836 33.9464 21.3186 35.7235 21.8306C35.132 21.1008 34.7744 20.1744 34.7744 19.1611L34.7743 17.0865Z" fill="#E6AF78"/>
<path d="M41.1614 28.1521C41.1614 27.5874 41.3857 27.0459 41.7849 26.6466L43.6117 24.8198C43.8559 25.1688 44.0001 25.589 44.0001 26.0375V31.226C44.0001 31.618 43.6824 31.9357 43.2904 31.9357H41.1614V28.1521Z" fill="#C7CFE2"/>
<path d="M37.2581 25.8507H36.5484C36.3525 25.8507 36.1936 25.6918 36.1936 25.4959V24.4314H37.6129V25.4959C37.6129 25.6918 37.4541 25.8507 37.2581 25.8507Z" fill="#959CB5"/>
<path d="M36.9031 24.4249L35.7003 25.3437C35.4931 25.502 35.1935 25.4385 35.0683 25.2098L33.9893 23.2392L34.4236 22.5767C34.5199 22.4298 34.7252 22.4048 34.854 22.5242L36.9031 24.4249Z" fill="#C7CFE2"/>
<path d="M36.9031 24.425L38.1059 25.3438C38.3131 25.5021 38.6127 25.4387 38.7379 25.2099L39.817 23.2394L39.3826 22.5769C39.2863 22.4299 39.081 22.4049 38.9522 22.5244L36.9031 24.425Z" fill="#C7CFE2"/>
<path d="M12.7033 21.7037C12.0969 20.0969 11.6159 17.3346 11.512 15.8964C11.3143 13.1596 9.25191 10.9287 6.46393 10.9287C3.67594 10.9287 1.61353 13.1597 1.41587 15.8964C1.31197 17.3345 0.830979 20.0969 0.224518 21.7037C0.0908852 22.058 0.245143 22.4485 0.593963 22.6067C1.24382 22.9012 2.62939 23.4782 4.30045 23.7029H8.62732C10.2906 23.4776 11.6858 22.9003 12.3338 22.6067C12.6827 22.4485 12.837 22.058 12.7033 21.7037Z" fill="#5A4146"/>
<path d="M12.3341 22.6067C12.6829 22.4485 12.8372 22.0579 12.7035 21.7037C12.0971 20.0969 11.616 17.3346 11.5122 15.8964C11.3147 13.1596 9.25217 10.9287 6.46427 10.9287C6.45722 10.9287 6.45026 10.9287 6.44321 10.9288C4.30397 10.9375 3.54798 13.855 5.38953 14.9435C5.50014 15.0089 5.57103 15.0404 5.57103 15.0404L7.184 23.7029H8.62766C10.2909 23.4775 11.6862 22.9002 12.3341 22.6067Z" fill="#694B4B"/>
<path d="M11.5973 25.1278L9.30067 23.9796C8.81977 23.7391 8.51598 23.2475 8.51606 22.7099L8.51623 20.5808H4.25803V22.71C4.25803 23.2476 3.95433 23.739 3.47342 23.9795L1.17683 25.1278C0.455555 25.4884 0 26.2255 0 27.0319V31.2258C0 31.6177 0.317711 31.9355 0.709672 31.9355H12.0645C12.4565 31.9355 12.7742 31.6177 12.7742 31.2258V27.032C12.7742 26.2255 12.3185 25.4884 11.5973 25.1278Z" fill="#E6AF78"/>
<path d="M6.38716 23.4193C7.15131 23.4193 7.88324 23.2617 8.55424 22.9813C8.53663 22.8919 8.51609 22.8029 8.51609 22.7097L8.51626 20.5806H4.25805V22.7098C4.25805 22.8035 4.23752 22.8929 4.21973 22.9827C4.89116 23.2616 5.62274 23.4193 6.38716 23.4193Z" fill="#D29B6E"/>
<path d="M11.5973 25.1277L9.96119 24.3097C9.20253 25.4812 7.88674 26.2581 6.38713 26.2581C4.88752 26.2581 3.57165 25.4812 2.81299 24.3096L1.17691 25.1277C0.455641 25.4883 0 26.2255 0 27.0318V31.2257C0 31.6177 0.317711 31.9354 0.709672 31.9354H12.0645C12.4565 31.9354 12.7742 31.6177 12.7742 31.2257V27.0319C12.7742 26.2255 12.3185 25.4883 11.5973 25.1277Z" fill="#D5DCED"/>
<path d="M6.38722 22.0001C4.22228 22.0001 2.43478 20.3845 2.1645 18.2932C2.12532 17.9902 2.27098 17.6931 2.54375 17.5555C2.87048 17.3907 3.34529 17.1128 3.79989 16.7072C4.30615 16.2555 4.60315 15.7791 4.7709 15.4294C4.91536 15.1283 5.24743 14.958 5.57107 15.0406C8.06979 15.6779 9.77092 16.9779 10.3881 17.5086C10.5538 17.6511 10.6493 17.8612 10.6323 18.0791C10.4603 20.2731 8.62546 22.0001 6.38722 22.0001Z" fill="#F0C087"/>
<path d="M10.388 17.5084C9.77089 16.9776 8.06968 15.6776 5.57096 15.0403C5.24732 14.9577 4.91526 15.1281 4.77079 15.4292C4.64378 15.6941 4.43383 16.0314 4.12231 16.3759C4.12222 16.3767 4.12197 16.3774 4.12188 16.3783C4.0252 16.4879 3.92225 16.5977 3.79987 16.707C3.34526 17.1127 2.87046 17.3905 2.54372 17.5554C2.27096 17.693 2.12538 17.9901 2.16448 18.2931C2.40726 20.1713 3.87696 21.6663 5.74163 21.9514C4.89197 21.3734 4.25818 20.5785 4.25818 19.1614V18.1494C4.4194 18.0303 4.58173 17.9117 4.74484 17.7661C5.13929 17.4141 5.48365 17.007 5.75976 16.5687C7.67127 17.1652 8.96721 18.1587 9.45851 18.5812C9.593 18.6991 9.92679 19.0068 10.3173 19.3731C10.4853 18.9688 10.5964 18.535 10.6321 18.0791C10.6492 17.8611 10.5537 17.6509 10.388 17.5084Z" fill="#E6AF78"/>
<path d="M0.432609 25.7527C0.159242 26.1155 0 26.5606 0 27.0319V31.2259C0 31.6178 0.317711 31.9355 0.709672 31.9355H2.83869V28.3597C2.83869 27.9285 2.64266 27.5207 2.30596 27.2513L0.432609 25.7527Z" fill="#C7CFE2"/>
<path d="M32.1959 24.1593L26.2581 22L22 23.4194L17.742 22.0001L11.8042 24.1594C10.6823 24.5673 9.93555 25.6334 9.93555 26.8271V31.2259C9.93555 31.6178 10.2533 31.9356 10.6452 31.9356H33.3549C33.7468 31.9356 34.0646 31.6178 34.0646 31.2259V26.8271C34.0646 25.6334 33.3178 24.5672 32.1959 24.1593Z" fill="#FF507D"/>
<path d="M21.2565 24.8386L20.5806 31.9353H23.4193L22.7434 24.8386H21.2565Z" fill="#707487"/>
<path d="M22.745 25.8138H21.2549C20.9805 25.8138 20.7581 25.5914 20.7581 25.317V23.4194H23.2417V25.317C23.2418 25.5913 23.0194 25.8138 22.745 25.8138Z" fill="#5B5D6E"/>
<path d="M33.3005 24.8928C33.7797 25.4072 34.0644 26.0922 34.0644 26.8269V31.2257C34.0644 31.6177 33.7467 31.9354 33.3548 31.9354H29.8064V29.5628C29.8064 28.8099 30.1055 28.0879 30.6378 27.5556L33.3005 24.8928Z" fill="#D23C69"/>
<path d="M29.8066 7.3645V1.41934C29.8066 0.635422 29.171 0 28.3872 0H19.8711C16.7355 0 14.1936 2.54186 14.1936 5.67746V7.3645C14.1936 8.12728 14.3166 8.88508 14.5578 9.60867L14.794 10.3174C14.8664 10.5345 14.9033 10.7618 14.9033 10.9906V11.3548H29.0968V10.9906C29.0968 10.7618 29.1337 10.5345 29.206 10.3174L29.4423 9.60867C29.6836 8.88499 29.8066 8.1272 29.8066 7.3645Z" fill="#5A4146"/>
<path d="M17.7419 2.88303C17.7419 4.47528 19.0327 5.76606 20.625 5.76606H21.0242L21.2168 11.3547H29.0967V10.9905C29.0967 10.7617 29.1336 10.5344 29.2059 10.3173L29.4422 9.60859C29.6834 8.88499 29.8064 8.1272 29.8064 7.36441V1.41934C29.8064 0.635422 29.1709 0 28.387 0H20.625C19.0327 0 17.7419 1.29078 17.7419 2.88303Z" fill="#694B4B"/>
<path d="M26.2581 17.0325H17.7417V23.4193H26.2581V17.0325Z" fill="#E6AF78"/>
<path d="M17.742 19.4319C18.9957 20.1582 20.4471 20.5806 22.0001 20.5806C23.553 20.5806 25.0045 20.1582 26.2581 19.4319V17.0322H17.7419L17.742 19.4319Z" fill="#D29B6E"/>
<path d="M22.0001 23.4193L19.7367 25.6828C19.4325 25.987 18.9297 25.9527 18.6696 25.61L16.3228 22.5176L16.9366 21.224C17.1178 20.8422 17.5902 20.7023 17.95 20.9241L22.0001 23.4193Z" fill="#D23C69"/>
<path d="M22.0002 23.4193L24.2637 25.6828C24.5679 25.987 25.0707 25.9527 25.3308 25.61L27.6776 22.5176L27.0638 21.224C26.8826 20.8422 26.4101 20.7023 26.0504 20.9241L22.0002 23.4193Z" fill="#D23C69"/>
<path d="M22.0001 19.1613C18.0807 19.1613 14.9033 15.9839 14.9033 12.0645V11.2331C14.9033 10.8567 15.0529 10.4956 15.319 10.2294L15.9069 9.6415C16.173 9.37535 16.3226 9.01433 16.3226 8.63784V6.93662C16.3226 6.60799 16.5433 6.32251 16.863 6.24697C18.5415 5.85054 23.7645 4.9115 27.319 7.52572C27.5498 7.69545 27.6774 7.97431 27.6774 8.26083V8.63784C27.6774 9.01424 27.8269 9.37526 28.0931 9.6415L28.681 10.2294C28.9471 10.4955 29.0967 10.8566 29.0967 11.2331V12.0645C29.0969 15.9839 25.9196 19.1613 22.0001 19.1613Z" fill="#F0C087"/>
<path d="M27.3191 7.52599C24.8191 5.68736 21.4984 5.60778 19.1614 5.8595C18.1756 5.96563 17.3611 6.12968 16.8632 6.24725C16.5434 6.32278 16.3227 6.60827 16.3227 6.93689V8.63802C16.3227 9.01452 16.1732 9.37554 15.907 9.64177L15.3191 10.2297C15.0529 10.4959 14.9033 10.8569 14.9033 11.2334V12.0648C14.9033 15.6934 17.6284 18.6807 21.1426 19.1048C19.918 17.8295 19.1614 16.1014 19.1614 14.1938V9.00652C19.1614 8.28731 19.6961 7.68627 20.4097 7.59681C22.1128 7.38325 25.2321 7.25486 27.6774 8.6382V8.2611C27.6776 7.97459 27.5497 7.69564 27.3191 7.52599Z" fill="#E6AF78"/>
<path d="M10.6994 24.8928C10.2203 25.4072 9.93555 26.0922 9.93555 26.8269V31.2257C9.93555 31.6177 10.2533 31.9354 10.6452 31.9354H14.1936V29.5628C14.1936 28.8099 13.8945 28.0879 13.3621 27.5556L10.6994 24.8928Z" fill="#D23C69"/>
</svg>
