<svg width="44" height="44" viewBox="0 0 44 44" fill="none" xmlns="http://www.w3.org/2000/svg">
<g clip-path="url(#clip0_5_5385)">
<path d="M37.9501 6.32489H32.9084V15.1249H37.9501V6.32489Z" fill="#F05540"/>
<path d="M39.8751 1.83325H30.9834V6.59995H39.8751V1.83325Z" fill="#F3705A"/>
<path d="M3.84985 23.7417V44H39.7832V23.7417C32.7249 16.6834 28.7832 12.7417 21.8165 5.77502C14.8499 12.8333 10.9082 16.775 3.84985 23.7417Z" fill="#FFD15C"/>
<path d="M39.8749 23.7417C32.8165 16.6834 28.8749 12.7417 21.9082 5.77502C18.3332 9.25833 15.5832 12.0083 12.8332 14.7583C10.0832 17.5083 7.33316 20.2583 3.84985 23.7416V27.8666C10.9082 20.8083 14.8499 16.8666 21.8165 9.89994C28.8749 16.9582 32.8165 20.8999 39.7832 27.8666V28.4166V23.7416H39.8749V23.7417Z" fill="#F7B64C"/>
<path d="M18.6084 44H7.79175V33.3667C7.79175 30.3417 10.2668 27.9584 13.2001 27.9584C16.2251 27.9584 18.6084 30.4334 18.6084 33.3667V44Z" fill="#415A6B"/>
<path d="M35.9333 27.9583H21.8167V40.3333H35.9333V27.9583Z" fill="#344A5E"/>
<path d="M28.1418 29.4251H23.2834V38.8668H28.1418V29.4251Z" fill="#8AD7F8"/>
<path d="M34.4667 29.4251H29.6084V38.8668H34.4667V29.4251Z" fill="#8AD7F8"/>
<path d="M43.175 19.9833L24.0167 0.825C22.9167 -0.275 20.9917 -0.275 19.8917 0.825L0.825 19.9833C-0.275 21.0833 -0.275 23.0083 0.825 24.1083C1.925 25.2083 3.85 25.2083 4.95 24.1083L22 7.0583L39.05 24.1083C40.15 25.2083 42.075 25.2083 43.175 24.1083C44.275 22.9167 44.275 21.0833 43.175 19.9833Z" fill="#F3705A"/>
</g>
<defs>
<clipPath id="clip0_5_5385">
<rect width="44" height="44" fill="white"/>
</clipPath>
</defs>
</svg>
