<svg width="44" height="44" viewBox="0 0 44 44" fill="none" xmlns="http://www.w3.org/2000/svg">
<path d="M18.1616 34.6556H25.8382V40.8577H18.1616V34.6556Z" fill="#A2C7F8"/>
<path d="M18.1616 34.6556H20.9376V40.8577H18.1616V34.6556Z" fill="#8DB3DF"/>
<path d="M29.7021 43.2032H14.2977C13.8087 43.2032 13.4124 42.8069 13.4124 42.3179V41.6544C13.4124 41.1654 13.8087 40.7691 14.2977 40.7691H29.7021C30.1911 40.7691 30.5875 41.1654 30.5875 41.6544V42.3179C30.5875 42.8069 30.191 43.2032 29.7021 43.2032Z" fill="#D8ECFE"/>
<path d="M17.8389 42.3179V41.6544C17.8389 41.1654 18.2353 40.7691 18.7242 40.7691H14.2977C13.8087 40.7691 13.4124 41.1654 13.4124 41.6544V42.3179C13.4124 42.8069 13.8087 43.2032 14.2977 43.2032H18.7242C18.2353 43.2032 17.8389 42.8069 17.8389 42.3179Z" fill="#C4E2FF"/>
<path d="M0 32.9736C0 33.9515 0.792773 34.7443 1.77066 34.7443H42.2294C43.2073 34.7443 44.0001 33.9515 44.0001 32.9736V30.3443H0V32.9736Z" fill="#D8ECFE"/>
<path d="M4.47081 32.9736V30.3443H0V32.9736C0 33.9515 0.792773 34.7443 1.77066 34.7443H6.24147C5.26359 34.7443 4.47081 33.9515 4.47081 32.9736Z" fill="#C4E2FF"/>
<path d="M23.5936 33.1349H20.4065C20.0505 33.1349 19.762 32.8463 19.762 32.4904C19.762 32.1344 20.0505 31.8458 20.4065 31.8458H23.5936C23.9496 31.8458 24.2381 32.1344 24.2381 32.4904C24.2381 32.8463 23.9496 33.1349 23.5936 33.1349Z" fill="#A2C7F8"/>
<path d="M44 30.3442H0V5.39934C0 4.66595 0.594516 4.07135 1.32799 4.07135H42.6721C43.4055 4.07135 44.0001 4.66587 44.0001 5.39934V30.3442H44Z" fill="#647FA0"/>
<path d="M2.78309 28.0038C2.53859 28.0038 2.34042 27.8057 2.34042 27.5612V6.85444C2.34042 6.60994 2.53859 6.41177 2.78309 6.41177H4.47081V5.39934C4.47081 4.66587 5.06533 4.07135 5.7988 4.07135H1.32799C0.594516 4.07135 0 4.66587 0 5.39934V30.3442H4.47081V28.0038H2.78309Z" fill="#5E6F90"/>
<path d="M41.2168 6.41162H2.783C2.5385 6.41162 2.34033 6.60979 2.34033 6.85429V27.561C2.34033 27.8055 2.5385 28.0037 2.783 28.0037H13.3998L13.5486 27.9177L15.253 24.9657H17.8094C18.0535 24.9657 18.252 24.7671 18.252 24.523V19.7712L21.0627 14.903C21.1384 14.7718 21.2741 14.6935 21.4256 14.6935C21.5771 14.6935 21.7128 14.7718 21.7885 14.903L28.0404 25.7317L28.0733 25.7265L28.1056 25.7325L33.1147 17.0564C33.1904 16.9253 33.3261 16.8469 33.4776 16.8469C33.6291 16.8469 33.7648 16.9253 33.8406 17.0564L40.1113 27.9177L40.2603 28.0037H41.2168C41.4613 28.0037 41.6595 27.8055 41.6595 27.561V6.85429C41.6595 6.60979 41.4613 6.41162 41.2168 6.41162Z" fill="#FED2A4"/>
<path d="M35.3682 14.4306C36.6395 14.4306 37.6701 13.4 37.6701 12.1287C37.6701 10.8575 36.6395 9.8269 35.3682 9.8269C34.097 9.8269 33.0664 10.8575 33.0664 12.1287C33.0664 13.4 34.097 14.4306 35.3682 14.4306Z" fill="#FE9901"/>
<path d="M34.8371 12.1287C34.8371 11.1712 35.4218 10.3505 36.2536 10.0036C35.981 9.8899 35.682 9.8269 35.3682 9.8269C34.097 9.8269 33.0664 10.8575 33.0664 12.1287C33.0664 13.4 34.097 14.4306 35.3682 14.4306C35.682 14.4306 35.981 14.3676 36.2536 14.2539C35.4219 13.907 34.8371 13.0862 34.8371 12.1287Z" fill="#FB8801"/>
<path d="M6.053 27.561V24.9656H5.53317C5.28868 24.9656 5.0905 24.7674 5.0905 24.5229V10.0038C5.0905 9.51482 5.48685 9.11848 5.97583 9.11848H6.05309V6.85429C6.05309 6.60979 6.25126 6.41162 6.49575 6.41162H2.783C2.5385 6.41162 2.34033 6.60979 2.34033 6.85429V27.5611C2.34033 27.8056 2.5385 28.0038 2.783 28.0038H6.49567C6.25118 28.0037 6.053 27.8055 6.053 27.561Z" fill="#FFBD86"/>
<path d="M33.0405 17.0136L26.6953 28.0038H40.2604L33.9152 17.0136C33.7208 16.677 33.2349 16.677 33.0405 17.0136Z" fill="#0182FC"/>
<path d="M29.4212 27.9511L34.8256 18.5905L33.9153 17.0137C33.7209 16.6771 33.235 16.6771 33.0406 17.0137L28.0735 25.6169L29.4212 27.9511Z" fill="#0172FB"/>
<path d="M24.966 20.2347H24.8669L24.1437 21.4872C24.0526 21.6449 23.8895 21.7391 23.7074 21.7391C23.5252 21.7391 23.362 21.6449 23.271 21.4872L22.5744 20.2805C22.4129 20.0008 22.1237 19.8339 21.8008 19.8339C21.4778 19.8339 21.1887 20.0008 21.0273 20.2805L19.8973 22.2377C19.8062 22.3954 19.6431 22.4897 19.461 22.4897C19.2789 22.4897 19.1157 22.3955 19.0247 22.2377L18.1664 20.7511V24.5232C18.1664 24.7199 18.0064 24.8799 17.8098 24.8799H15.2037L13.4001 28.0039H29.4518L24.966 20.2347Z" fill="#0593FC"/>
<path d="M18.1663 24.5231C18.1663 24.5233 18.1663 24.5235 18.1663 24.5237L19.3036 22.5539C19.1624 22.5154 19.0334 22.4246 18.9502 22.2806L18.1663 20.9229V24.5231Z" fill="#0182FC"/>
<path d="M17.8095 24.8798H15.2035L13.3999 28.0037H16.1569L17.9898 24.8291C17.9367 24.8606 17.8756 24.8798 17.8095 24.8798Z" fill="#0182FC"/>
<path d="M36.543 3.55155L36.3514 3.48151L27.6089 12.2239L27.6194 12.3419L30.0252 14.7477L30.1384 14.7534L38.8809 6.01099L38.7201 5.72869L36.543 3.55155Z" fill="#8DB3DF"/>
<path d="M42.1395 1.67634L40.6861 0.222879C40.3889 -0.074293 39.9072 -0.074293 39.6101 0.222879L37.7537 2.0793L37.8992 2.34631L40.1035 4.55061L40.2831 4.60879L42.1396 2.75236C42.4367 2.45519 42.4367 1.97343 42.1395 1.67634Z" fill="#8DB3DF"/>
<path d="M21.8631 14.8602C21.6687 14.5235 21.1828 14.5235 20.9884 14.8602L18.1663 19.7483V20.9229L18.9501 22.2807C19.1771 22.6738 19.7446 22.6738 19.9716 22.2807L21.1016 20.3234C21.4124 19.7853 22.1892 19.7853 22.4999 20.3234L23.1966 21.5302C23.4236 21.9233 23.9911 21.9233 24.2182 21.5302L24.9661 20.2346L21.8631 14.8602Z" fill="white"/>
<path d="M21.8631 14.8602C21.6687 14.5235 21.1828 14.5235 20.9884 14.8602L18.1663 19.7483V20.9229L18.9501 22.2806C19.0333 22.4248 19.1624 22.5154 19.3035 22.5539L22.8042 16.4904L21.8631 14.8602Z" fill="#EAF6FF"/>
<path d="M17.3669 9.11877H5.9759C5.48692 9.11877 5.09058 9.51512 5.09058 10.0041V13.0175L5.30207 13.106H18.0249L18.2522 13.0175V10.0041C18.2522 9.5152 17.8559 9.11877 17.3669 9.11877Z" fill="#FE646F"/>
<path d="M7.86455 10.0041C7.86455 9.51512 8.2609 9.11877 8.74988 9.11877H5.9759C5.48692 9.11877 5.09058 9.51512 5.09058 10.0041V13.0175L5.30207 13.106H8.07604L7.86455 13.0175V10.0041Z" fill="#FD4755"/>
<path d="M17.8096 24.9659H5.53324C5.28875 24.9659 5.09058 24.7678 5.09058 24.5233V13.0175H18.2522V24.5233C18.2522 24.7678 18.0541 24.9659 17.8096 24.9659Z" fill="white"/>
<path d="M7.86455 24.5233V13.0175H5.09058V24.5233C5.09058 24.7678 5.28875 24.9659 5.53324 24.9659H8.30722C8.06281 24.9659 7.86455 24.7678 7.86455 24.5233Z" fill="#EAF6FF"/>
<path d="M16.0391 21.4969H7.30396C6.94792 21.4969 6.65942 21.2084 6.65942 20.8524C6.65942 20.4965 6.94792 20.2079 7.30396 20.2079H16.0391C16.3951 20.2079 16.6836 20.4965 16.6836 20.8524C16.6836 21.2084 16.395 21.4969 16.0391 21.4969Z" fill="#8DB3DF"/>
<path d="M13.4272 22.2274C14.1866 22.2274 14.8022 21.6118 14.8022 20.8524C14.8022 20.093 14.1866 19.4774 13.4272 19.4774C12.6679 19.4774 12.0522 20.093 12.0522 20.8524C12.0522 21.6118 12.6679 22.2274 13.4272 22.2274Z" fill="#0593FC"/>
<path d="M16.0391 17.6902H7.30396C6.94792 17.6902 6.65942 17.4016 6.65942 17.0457C6.65942 16.6897 6.94792 16.4011 7.30396 16.4011H16.0391C16.3951 16.4011 16.6836 16.6897 16.6836 17.0457C16.6836 17.4016 16.395 17.6902 16.0391 17.6902Z" fill="#8DB3DF"/>
<path d="M9.88623 18.4207C10.6456 18.4207 11.2612 17.805 11.2612 17.0457C11.2612 16.2863 10.6456 15.6707 9.88623 15.6707C9.12684 15.6707 8.51123 16.2863 8.51123 17.0457C8.51123 17.805 9.12684 18.4207 9.88623 18.4207Z" fill="#0593FC"/>
<path d="M16.1182 11.5816C16.4741 11.5816 16.7627 11.293 16.7627 10.9371C16.7627 10.5811 16.4741 10.2925 16.1182 10.2925C15.7622 10.2925 15.4736 10.5811 15.4736 10.9371C15.4736 11.293 15.7622 11.5816 16.1182 11.5816Z" fill="#FFBD86"/>
<path d="M14.342 11.5816C14.698 11.5816 14.9866 11.293 14.9866 10.9371C14.9866 10.5811 14.698 10.2925 14.342 10.2925C13.9861 10.2925 13.6975 10.5811 13.6975 10.9371C13.6975 11.293 13.9861 11.5816 14.342 11.5816Z" fill="#FFBD86"/>
<path d="M12.5662 11.5816C12.9221 11.5816 13.2107 11.293 13.2107 10.9371C13.2107 10.5811 12.9221 10.2925 12.5662 10.2925C12.2102 10.2925 11.9216 10.5811 11.9216 10.9371C11.9216 11.293 12.2102 11.5816 12.5662 11.5816Z" fill="#FFBD86"/>
<path d="M41.2985 0.835821L40.6856 0.223001C40.3884 -0.0741709 39.9067 -0.0741709 39.6096 0.223001L37.7532 2.07942L38.904 3.2303L41.2985 0.835821Z" fill="#799FCA"/>
<path d="M30.2234 11.9109L37.5019 4.63238L36.3511 3.48151L27.6086 12.2239L27.619 12.3419L30.0249 14.7477L30.1381 14.7534L31.289 13.6025L30.2235 12.537C30.0506 12.3641 30.0506 12.0838 30.2234 11.9109Z" fill="#799FCA"/>
<path d="M27.6087 12.2239C27.5371 12.2955 27.4806 12.3806 27.4423 12.4743L25.9592 16.1052C25.8827 16.2925 26.0696 16.4793 26.2568 16.4028L29.8878 14.9197C29.9814 14.8815 30.0665 14.8249 30.1381 14.7533L27.6087 12.2239Z" fill="#647FA0"/>
<path d="M36.3469 3.48523L37.7489 2.0833L40.278 4.61241L38.876 6.01433L36.3469 3.48523Z" fill="#C4E2FF"/>
<path d="M36.3472 3.48523L37.7491 2.0833L38.8999 3.23406L37.4979 4.63598L36.3472 3.48523Z" fill="#B3DAFE"/>
</svg>
