<svg width="84" height="98" viewBox="0 0 84 98" fill="none" xmlns="http://www.w3.org/2000/svg">
<path d="M69.1894 42C69.1898 37.565 68.1054 33.1973 66.0307 29.2775C63.956 25.3578 60.954 22.005 57.2864 19.5115C53.6188 17.018 49.3969 15.4595 44.9888 14.9719C40.5807 14.4842 36.1203 15.0823 31.9963 16.7138C27.8724 18.3453 24.2101 20.9609 21.3288 24.3324C18.4475 27.7039 16.4346 31.729 15.4657 36.0568C14.4968 40.3847 14.6012 44.8838 15.7698 49.162C16.9384 53.4403 19.1358 57.3677 22.1704 60.6019C25.7982 64.3921 27.8432 69.4237 27.8881 74.6701V77.4608C27.8881 78.3528 28.2425 79.2083 28.8732 79.8391C29.504 80.4698 30.3595 80.8242 31.2515 80.8242H52.7509C53.643 80.8242 54.4984 80.4698 55.1292 79.8391C55.76 79.2083 56.1143 78.3528 56.1143 77.4608V74.6709C56.0761 69.5428 58.028 64.5996 61.5596 60.8811C66.461 55.8188 69.1977 49.0463 69.1894 42Z" fill="#FFD92E"/>
<path d="M34.314 45.7568H49.6862V80.8241H34.314V45.7568Z" fill="#FF6E1D"/>
<path d="M39.438 45.7568H44.5621V80.8241H39.438V45.7568Z" fill="#F75B0D"/>
<path d="M34.314 45.7569C34.6489 46.096 35.0479 46.3652 35.4877 46.5489C35.9275 46.7327 36.3994 46.8273 36.876 46.8273C37.3526 46.8273 37.8245 46.7327 38.2643 46.5489C38.7041 46.3652 39.1031 46.096 39.438 45.7569C39.773 46.096 40.172 46.3652 40.6118 46.5489C41.0516 46.7327 41.5235 46.8273 42.0001 46.8273C42.4767 46.8273 42.9486 46.7327 43.3884 46.5489C43.8282 46.3652 44.2272 46.096 44.5621 45.7569C44.8971 46.096 45.296 46.3652 45.7358 46.5489C46.1756 46.7327 46.6475 46.8273 47.1242 46.8273C47.6008 46.8273 48.0727 46.7327 48.5125 46.5489C48.9523 46.3652 49.3513 46.096 49.6862 45.7569L42.0001 30.3846L34.314 45.7569Z" fill="#FEE1BA"/>
<path d="M38.1936 37.9976H45.8066L42.0001 30.3846L38.1936 37.9976Z" fill="#404A80"/>
<path d="M52.751 80.8241V93.9639C52.751 94.8559 52.3967 95.7114 51.7659 96.3422C51.1351 96.9729 50.2797 97.3273 49.3876 97.3273H34.6124C33.7204 97.3273 32.8649 96.9729 32.2341 96.3422C31.6034 95.7114 31.249 94.8559 31.249 93.9639V80.8241H52.751Z" fill="#80D4FF"/>
<path d="M42 9.34258C41.8068 9.3427 41.6154 9.30471 41.4368 9.2308C41.2582 9.15689 41.096 9.04851 40.9593 8.91185C40.8226 8.77519 40.7143 8.61293 40.6403 8.43435C40.5664 8.25577 40.5285 8.06438 40.5286 7.87111V1.47147C40.5286 1.08121 40.6836 0.706939 40.9595 0.430984C41.2355 0.15503 41.6098 0 42 0C42.3903 0 42.7646 0.15503 43.0405 0.430984C43.3165 0.706939 43.4715 1.08121 43.4715 1.47147V7.87111C43.4716 8.06438 43.4336 8.25577 43.3597 8.43435C43.2858 8.61293 43.1774 8.77519 43.0408 8.91185C42.9041 9.04851 42.7419 9.15689 42.5633 9.2308C42.3847 9.30471 42.1933 9.3427 42 9.34258Z" fill="#FFD92E"/>
<path d="M82.5286 43.4707H76.1289C75.7387 43.4707 75.3644 43.3156 75.0885 43.0397C74.8125 42.7637 74.6575 42.3894 74.6575 41.9992C74.6575 41.6089 74.8125 41.2346 75.0885 40.9587C75.3644 40.6827 75.7387 40.5277 76.1289 40.5277H82.5286C82.9188 40.5277 83.2931 40.6827 83.5691 40.9587C83.845 41.2346 84.0001 41.6089 84.0001 41.9992C84.0001 42.3894 83.845 42.7637 83.5691 43.0397C83.2931 43.3156 82.9188 43.4707 82.5286 43.4707Z" fill="#FFD92E"/>
<path d="M7.87195 43.4707H1.47147C1.08121 43.4707 0.706938 43.3156 0.430984 43.0397C0.155029 42.7637 0 42.3894 0 41.9992C0 41.6089 0.155029 41.2346 0.430984 40.9587C0.706938 40.6827 1.08121 40.5277 1.47147 40.5277H7.87111C8.26137 40.5277 8.63565 40.6827 8.9116 40.9587C9.18755 41.2346 9.34258 41.6089 9.34258 41.9992C9.34258 42.3894 9.18755 42.7637 8.9116 43.0397C8.63565 43.3156 8.26137 43.4707 7.87111 43.4707H7.87195Z" fill="#FFD92E"/>
<path d="M66.1321 19.3393C65.8412 19.3391 65.5568 19.2528 65.315 19.0911C65.0731 18.9294 64.8847 18.6996 64.7733 18.4308C64.662 18.162 64.6329 17.8663 64.6896 17.5809C64.7463 17.2956 64.8864 17.0335 65.092 16.8277L69.6174 12.3014C69.8933 12.0256 70.2674 11.8706 70.6575 11.8706C71.0476 11.8706 71.4218 12.0256 71.6976 12.3014C71.9735 12.5773 72.1285 12.9514 72.1285 13.3416C72.1285 13.7317 71.9735 14.1058 71.6976 14.3817L67.1722 18.9079C67.0359 19.0449 66.8738 19.1536 66.6953 19.2276C66.5168 19.3016 66.3254 19.3396 66.1321 19.3393Z" fill="#FFD92E"/>
<path d="M13.3426 72.1282C13.0516 72.128 12.7673 72.0416 12.5254 71.8799C12.2836 71.7182 12.0951 71.4885 11.9838 71.2197C11.8725 70.9509 11.8433 70.6552 11.9001 70.3698C11.9568 70.0845 12.0968 69.8224 12.3024 69.6166L16.827 65.0912C17.103 64.8152 17.4773 64.6602 17.8675 64.6602C18.2578 64.6602 18.6321 64.8152 18.9081 65.0912C19.1841 65.3671 19.3391 65.7414 19.3391 66.1317C19.3391 66.522 19.1841 66.8963 18.9081 67.1722L14.3827 71.6976C14.2462 71.8343 14.084 71.9427 13.9055 72.0166C13.727 72.0904 13.5357 72.1284 13.3426 72.1282Z" fill="#FFD92E"/>
<path d="M70.6575 72.1282C70.4644 72.1285 70.273 72.0906 70.0945 72.0167C69.916 71.9429 69.7539 71.8344 69.6174 71.6977L65.092 67.1723C64.9514 67.0366 64.8393 66.8742 64.7622 66.6947C64.685 66.5152 64.6444 66.3221 64.6426 66.1268C64.6409 65.9314 64.6781 65.7376 64.752 65.5568C64.826 65.3759 64.9352 65.2116 65.0734 65.0734C65.2115 64.9352 65.3758 64.8259 65.5566 64.7519C65.7374 64.6779 65.9312 64.6406 66.1265 64.6423C66.3219 64.6439 66.515 64.6845 66.6946 64.7616C66.8741 64.8386 67.0365 64.9507 67.1723 65.0912L71.6977 69.6166C71.9033 69.8224 72.0433 70.0845 72.1 70.3699C72.1568 70.6552 72.1276 70.951 72.0163 71.2197C71.905 71.4885 71.7165 71.7183 71.4747 71.88C71.2328 72.0417 70.9485 72.1281 70.6575 72.1282Z" fill="#FFD92E"/>
<path d="M17.8679 19.3393C17.6746 19.3395 17.483 19.3015 17.3044 19.2275C17.1258 19.1535 16.9635 19.0449 16.827 18.9079L12.3024 14.3817C12.1658 14.2451 12.0575 14.0829 11.9836 13.9045C11.9096 13.726 11.8716 13.5347 11.8716 13.3416C11.8716 13.1484 11.9096 12.9571 11.9836 12.7786C12.0575 12.6002 12.1658 12.438 12.3024 12.3014C12.439 12.1648 12.6012 12.0565 12.7796 11.9826C12.9581 11.9087 13.1494 11.8706 13.3425 11.8706C13.5357 11.8706 13.727 11.9087 13.9054 11.9826C14.0839 12.0565 14.2461 12.1648 14.3827 12.3014L18.9081 16.8277C19.1137 17.0335 19.2537 17.2956 19.3104 17.5809C19.3672 17.8663 19.338 18.162 19.2267 18.4308C19.1154 18.6996 18.9269 18.9294 18.6851 19.0911C18.4432 19.2528 18.1589 19.3391 17.8679 19.3393Z" fill="#FFD92E"/>
<path d="M31.249 87.6038H52.751V90.5467H31.249V87.6038Z" fill="#6EBAFF"/>
</svg>
