<svg width="84" height="84" viewBox="0 0 84 84" fill="none" xmlns="http://www.w3.org/2000/svg">
<g clip-path="url(#clip0_5_5274)">
<path d="M83.8359 7.37576V52.6314C83.8359 56.6548 80.572 59.9187 76.5467 59.9187H7.12326C3.09796 59.9187 -0.164062 56.6548 -0.164062 52.6314V7.37576C-0.164062 3.39404 3.064 0.164062 7.04636 0.164062H76.6242C80.606 0.164062 83.8359 3.39404 83.8359 7.37576Z" fill="#C4E2F2"/>
<path d="M58.778 69.6426L41.8353 73.5032L24.8914 69.6426L27.2126 59.9193L41.1156 54.8071L56.4567 59.9193L57.2078 63.0667L58.778 69.6426Z" fill="#2D303B"/>
<path d="M83.8359 51.7726V52.6294C83.8359 56.6547 80.572 59.9187 76.5467 59.9187H7.12326C3.09796 59.9187 -0.164062 56.6547 -0.164062 52.6294V51.7726H83.8359Z" fill="#3C3F4D"/>
<path d="M58.7781 69.6426H32.8633L34.4334 63.0667H57.208L58.7781 69.6426Z" fill="#3C3F4D"/>
<path d="M68.7634 75.056V77.3651H14.908V75.056C14.908 72.0663 17.3317 69.6426 20.3214 69.6426H63.35C66.3396 69.6426 68.7634 72.0663 68.7634 75.056Z" fill="#2D303B"/>
<path d="M74.8548 59.9186H36.8167L38.6797 41.9807H72.9911L74.8548 59.9186Z" fill="#83B2C6"/>
<path d="M39.1084 21.7722L38.6591 25.2002L37.221 36.1533C36.9621 38.1259 35.2824 39.6005 33.2918 39.6005H16.1249C14.135 39.6005 12.4546 38.1259 12.1957 36.1533L10.3083 21.7722L24.7087 17.9148L39.1084 21.7722Z" fill="#1F81A3"/>
<path d="M38.6593 25.2002L37.2212 36.1533C36.9623 38.1259 35.2826 39.6005 33.292 39.6005H21.6109C19.6204 39.6005 17.9407 38.1259 17.6817 36.1533L16.707 28.7301C16.4615 26.86 17.9176 25.2002 19.8037 25.2002H38.6593Z" fill="#2C92BF"/>
<path d="M41.0798 17.8943V19.9925C41.0798 20.975 40.2832 21.7722 39.3008 21.7722H10.1169C9.1344 21.7722 8.33716 20.975 8.33716 19.9925V17.8943C8.33716 16.9119 9.1344 16.1146 10.1169 16.1146H39.3008C40.2832 16.1146 41.0798 16.9119 41.0798 17.8943Z" fill="#1F81A3"/>
<path d="M41.0797 17.8943V19.9925C41.0797 20.975 40.2831 21.7722 39.3006 21.7722H16.9734C15.9916 21.7722 15.1943 20.975 15.1943 19.9925V17.8943C15.1943 16.9119 15.9916 16.1146 16.9734 16.1146H39.3006C40.2831 16.1146 41.0797 16.9119 41.0797 17.8943Z" fill="#2C92BF"/>
<path d="M24.7086 8.05774C23.0988 8.05774 21.7939 9.36255 21.7939 10.9718V24.8575C21.7939 26.4673 23.0988 27.7721 24.7086 27.7721C26.3178 27.7721 27.6226 26.4673 27.6226 24.8575V10.9718C27.6226 9.36255 26.3178 8.05774 24.7086 8.05774Z" fill="#3C3F4D"/>
<path d="M74.6838 59.9187H36.645L37.4903 51.7726H73.8385L74.6838 59.9187Z" fill="#2D303B"/>
<path d="M75.2193 41.9801H40.9085L36.5371 84.0512H79.5907L75.2193 41.9801Z" fill="#FF491F"/>
<path d="M55.0917 55.5833H31.2417L28.2034 84.0513H58.1307L55.0917 55.5833Z" fill="#FFE14D"/>
<path d="M67.3207 47.3801C66.61 47.3801 66.0345 46.8046 66.0345 46.0945V37.6101C66.0345 33.2143 62.4591 29.6389 58.064 29.6389C53.6683 29.6389 50.0929 33.215 50.0929 37.6101V46.0945C50.0929 46.8046 49.5174 47.3801 48.8073 47.3801C48.0972 47.3801 47.5217 46.8046 47.5217 46.0945V37.6101C47.5217 31.7967 52.2507 27.0677 58.064 27.0677C63.8767 27.0677 68.6063 31.7967 68.6063 37.6101V46.0945C68.6063 46.8046 68.0308 47.3801 67.3207 47.3801Z" fill="white"/>
<path d="M43.1669 73.1167C39.4095 73.1167 36.3525 70.0598 36.3525 66.3024V60.7742C36.3525 60.0641 36.9287 59.4886 37.6388 59.4886C38.3488 59.4886 38.9243 60.0641 38.9243 60.7742V66.3024C38.9243 68.6415 40.8277 70.5449 43.1669 70.5449C45.5067 70.5449 47.4095 68.6422 47.4095 66.3024V60.7742C47.4095 60.0641 47.985 59.4886 48.695 59.4886C49.4051 59.4886 49.9806 60.0641 49.9806 60.7742V66.3024C49.9806 70.0598 46.9243 73.1167 43.1669 73.1167Z" fill="#3C3F4D"/>
<path d="M53.9894 14.5106H48.5036C47.7935 14.5106 47.218 13.9351 47.218 13.225C47.218 12.515 47.7935 11.9395 48.5036 11.9395H53.9894C54.6995 11.9395 55.275 12.515 55.275 13.225C55.275 13.9351 54.6995 14.5106 53.9894 14.5106Z" fill="#FF491F"/>
<path d="M77.4748 14.5106H59.6464C58.9363 14.5106 58.3608 13.9351 58.3608 13.225C58.3608 12.515 58.9363 11.9395 59.6464 11.9395H77.4748C78.1855 11.9395 78.761 12.515 78.761 13.225C78.761 13.9351 78.1849 14.5106 77.4748 14.5106Z" fill="#3C3F4D"/>
<path d="M53.9894 20.511H48.5036C47.7935 20.511 47.218 19.9349 47.218 19.2248C47.218 18.5147 47.7935 17.9392 48.5036 17.9392H53.9894C54.6995 17.9392 55.275 18.5147 55.275 19.2248C55.275 19.9349 54.6995 20.511 53.9894 20.511Z" fill="#FF491F"/>
<path d="M77.4748 20.511H59.6464C58.9363 20.511 58.3608 19.9349 58.3608 19.2248C58.3608 18.5147 58.9363 17.9392 59.6464 17.9392H77.4748C78.1855 17.9392 78.761 18.5147 78.761 19.2248C78.761 19.9349 78.1849 20.511 77.4748 20.511Z" fill="#3C3F4D"/>
</g>
<defs>
<clipPath id="clip0_5_5274">
<rect width="84" height="84" fill="white"/>
</clipPath>
</defs>
</svg>
