<svg width="84" height="84" viewBox="0 0 84 84" fill="none" xmlns="http://www.w3.org/2000/svg">
<g clip-path="url(#clip0_5_5252)">
<path d="M23.0259 14.6733V27.8522L22.4574 36.8333C22.1754 41.2841 25.7092 45.0493 30.1697 45.0493H53.9081C58.3679 45.0493 61.9017 41.2841 61.6203 36.8333L61.0519 27.8522V14.6733C61.0519 6.56955 54.4823 0 46.3785 0H37.6986C29.5954 0 23.0259 6.56955 23.0259 14.6733Z" fill="#FFB123"/>
<path d="M61.6203 36.8333L61.0518 27.8515V14.6733C61.0518 6.56955 54.4823 0 46.3785 0H37.9607C46.0645 0 52.634 6.56955 52.634 14.6733V27.8522L53.2025 36.8333C53.4838 41.2841 49.9501 45.0493 45.4903 45.0493H53.9074C58.3679 45.0493 61.9016 41.2841 61.6203 36.8333Z" fill="#FF901D"/>
<path d="M52.7057 50.1929C51.0362 49.8 49.8352 47.5333 49.8352 45.5408V36.6597H34.2423V45.5408C34.2423 47.5333 33.0406 49.8 31.3712 50.1929C23.227 52.8 21.148 63.3589 27.6964 68.8589H56.3804C62.9288 63.3589 60.8505 52.8 52.7057 50.1929Z" fill="#FFE7CF"/>
<path d="M52.7058 50.1929C51.0364 49.8 49.8354 47.5333 49.8354 45.5408V36.6597H41.3618V48.9413C41.3618 50.9337 42.5634 53.2005 44.2329 53.5934C50.9056 55.7294 53.505 63.2025 50.6256 68.8589H56.3806C62.929 63.3589 60.8507 52.8 52.7058 50.1929Z" fill="#EFD5BD"/>
<path d="M79.9305 80.3976L76.9222 62.7859C76.1993 58.5542 73.1001 55.1192 68.9645 53.9662L63.1589 52.3109C59.2637 51.2003 55.2288 50.6606 51.1785 50.7042C45.9183 50.76 38.1592 50.76 32.8984 50.7042C28.8487 50.6606 24.8132 51.2003 20.9179 52.3109L15.113 53.9662C10.9768 55.1192 7.87754 58.5542 7.15464 62.7859L4.1464 80.3976C3.82469 82.2805 5.27497 83.9999 7.18541 83.9999H76.8921C78.8019 83.9999 80.2522 82.2805 79.9305 80.3976Z" fill="#F9644B"/>
<path d="M79.9305 80.3976L76.9223 62.7859C76.1994 58.5542 73.1001 55.1192 68.9646 53.9662L63.159 52.3109C59.2638 51.2003 55.2289 50.6606 51.1786 50.7042C49.3444 50.7235 47.2058 50.7363 44.9756 50.742C47.9595 50.8843 50.919 51.3675 53.7972 52.1878L60.0341 53.9662C64.1696 55.1192 67.2689 58.5542 67.9918 62.7859L71.6152 83.9999H76.8915C78.8019 83.9999 80.2522 82.2805 79.9305 80.3976Z" fill="#DB3F2E"/>
<path d="M52.7576 6.63748C50.2428 4.47198 46.7078 2.58206 42.0384 2.53015C37.369 2.58206 33.834 4.47198 31.3192 6.63748C28.1117 9.39899 26.3743 13.5005 26.3743 17.7335V28.0066C26.3743 32.2396 31.6941 43.4669 42.0384 43.4669C52.3827 43.4669 57.7032 32.2396 57.7032 28.0066V17.7335C57.7032 13.5005 55.9651 9.39899 52.7576 6.63748Z" fill="#FFE7CF"/>
<path d="M52.7576 6.63748C50.2428 4.47198 46.7078 2.58206 42.0384 2.53015C40.5157 2.54681 39.1148 2.76022 37.8298 3.11398C40.4862 3.84457 42.6453 5.17822 44.3398 6.63748C47.5473 9.39899 49.2854 13.5005 49.2854 17.7335V28.0066C49.2854 31.6211 45.4049 40.3357 37.8298 42.8043C39.125 43.226 40.5279 43.4669 42.0384 43.4669C52.3827 43.4669 57.7032 32.2396 57.7032 28.0066V17.7335C57.7032 13.5005 55.9652 9.39899 52.7576 6.63748Z" fill="#EFD5BD"/>
<path d="M69.8714 79.7876H14.2055L12.5014 52.2642C12.4079 50.7453 13.614 49.4617 15.136 49.4617H68.9409C70.4629 49.4617 71.669 50.7453 71.5755 52.2642L69.8714 79.7876Z" fill="#E1EFFB"/>
<path d="M68.9416 49.4617H60.4956C62.0177 49.4617 63.2238 50.7453 63.1302 52.2642L61.4261 79.7876H69.8715L71.5756 52.2642C71.6698 50.7453 70.463 49.4617 68.9416 49.4617Z" fill="#BACED8"/>
<path d="M71.9934 79.0352H12.0836C10.7128 79.0352 9.60156 80.1464 9.60156 81.5172C9.60156 82.8887 10.7128 84 12.0836 84H71.9934C73.3648 84 74.4761 82.8887 74.4761 81.5172C74.4761 80.1464 73.3648 79.0352 71.9934 79.0352Z" fill="#BACED8"/>
<path d="M71.9932 79.0352H66.0581V84H71.9932C73.3647 84 74.4759 82.8887 74.4759 81.5172C74.4759 80.1464 73.3647 79.0352 71.9932 79.0352Z" fill="#A3BBC4"/>
<path d="M49.5705 57.0918C45.41 52.932 38.6654 52.932 34.5049 57.0918C30.345 61.2524 30.345 67.9969 34.5049 72.1574C38.6654 76.3173 45.41 76.3173 49.5705 72.1574C53.7304 67.9969 53.7304 61.2524 49.5705 57.0918Z" fill="#24D9DE"/>
<path d="M47.1776 63.0621C46.9931 62.8769 46.6931 62.8769 46.5079 63.0621L43.6817 65.8877C42.9716 66.5985 41.82 66.5985 41.1093 65.8877C40.3992 65.1776 40.3992 64.0266 41.1093 63.3166C42.0802 62.3456 43.3433 61.0825 43.9361 60.4897C44.1207 60.3045 44.1207 60.0046 43.9355 59.82L43.6356 59.5201C43.5266 59.4111 43.3715 59.3618 43.2203 59.388L38.3401 60.2308C37.7979 60.3243 37.3653 60.7364 37.2461 61.2741L36.6783 65.6634C36.5315 66.7946 36.015 67.8456 35.2081 68.6524L33.2368 70.6238C33.6053 71.164 34.027 71.678 34.5057 72.1573C35.1037 72.7553 35.7561 73.2635 36.445 73.6897L38.3452 71.7895C39.1514 70.9826 40.2024 70.4661 41.3342 70.3193L45.7235 69.7515C46.2612 69.6323 46.6733 69.1997 46.7668 68.6576L47.6096 63.7773C47.6359 63.6261 47.5865 63.471 47.4776 63.3621L47.1776 63.0621Z" fill="#E1EFFB"/>
<path d="M25.9001 28.736H23.7122C21.9306 28.736 20.4861 27.2915 20.4861 25.5099V20.4874C20.4861 18.7057 21.9306 17.2612 23.7122 17.2612H25.9001C26.2219 17.2612 26.4827 17.5221 26.4827 17.8438V28.1534C26.4827 28.4752 26.2219 28.736 25.9001 28.736Z" fill="#F9644B"/>
<path d="M58.1814 38.3675H44.3707C43.6708 38.3675 43.103 37.8004 43.103 37.0999C43.103 36.4001 43.6708 35.8323 44.3707 35.8323H58.1814C58.2589 35.8323 58.3237 35.7714 58.3281 35.6938L58.9133 25.7693C58.9543 25.0708 59.5516 24.5344 60.2533 24.5786C60.9519 24.6196 61.4851 25.2195 61.444 25.9187L60.8589 35.8432C60.7756 37.2588 59.5996 38.3675 58.1814 38.3675Z" fill="#BACED8"/>
<path d="M45.6132 39.2366H43.1279C41.9474 39.2366 40.9912 38.2798 40.9912 37.0999C40.9912 35.9201 41.9474 34.9633 43.1279 34.9633H45.6132C46.7936 34.9633 47.7498 35.9201 47.7498 37.0999C47.7498 38.2798 46.7936 39.2366 45.6132 39.2366Z" fill="#8ABE50"/>
<path d="M58.1775 28.736H60.3648C62.1464 28.736 63.5909 27.2915 63.5909 25.5099V20.4874C63.5909 18.7057 62.1464 17.2612 60.3648 17.2612H58.1775C57.8558 17.2612 57.595 17.5221 57.595 17.8438V28.1534C57.595 28.4752 57.8558 28.736 58.1775 28.736Z" fill="#F9644B"/>
<path d="M61.0519 21.3858V14.6733C61.0519 6.56955 54.4823 0 46.3785 0H37.6986C29.5954 0 23.0259 6.56955 23.0259 14.6733V19.4331C23.0259 19.9477 23.3213 20.4245 23.7924 20.6309C24.4967 20.9398 25.3022 21.0974 26.1995 21.0628C32.9113 20.8026 34.7583 15.2495 35.2447 12.843C35.3158 12.4925 35.7683 12.3944 35.9766 12.686C37.8748 15.3405 44.3566 21.8062 57.5284 22.6573C57.8392 22.6772 58.6576 22.6925 59.7188 22.7041C60.452 22.7118 61.0519 22.1196 61.0519 21.3858Z" fill="#FFB123"/>
<path d="M46.3784 0H38.0183C46.1221 0 52.6916 6.56955 52.6916 14.6733V21.3858C52.6916 21.6172 52.6314 21.8338 52.5276 22.0228C54.0746 22.3215 55.739 22.5413 57.5283 22.6573C57.8391 22.6772 58.6575 22.6925 59.7188 22.7041C60.4519 22.7118 61.0511 22.1196 61.0511 21.3858V14.6733C61.0518 6.56955 54.4822 0 46.3784 0Z" fill="#FF901D"/>
</g>
<defs>
<clipPath id="clip0_5_5252">
<rect width="84" height="84" fill="white"/>
</clipPath>
</defs>
</svg>
