<svg width="84" height="84" viewBox="0 0 84 84" fill="none" xmlns="http://www.w3.org/2000/svg">
<path fill-rule="evenodd" clip-rule="evenodd" d="M84.0001 17.822L46.6393 11.2524L9.27856 17.822V68.1142C9.27856 71.2519 11.8472 73.8199 14.9893 73.8199H78.2893C81.4321 73.8199 84.0001 71.2519 84.0001 68.1142V17.822Z" fill="#EEEEEE"/>
<path fill-rule="evenodd" clip-rule="evenodd" d="M9.27856 7.18222V17.8219H84.0001V7.18222C84.0001 4.04453 81.4321 1.47656 78.2893 1.47656H14.99C11.8472 1.47656 9.27856 4.04453 9.27856 7.18222Z" fill="#808080"/>
<path fill-rule="evenodd" clip-rule="evenodd" d="M72.2446 1.47656C75.3875 1.47656 77.9561 4.04453 77.9561 7.18222V17.8219H84.0001V7.18222C84.0001 4.04453 81.4321 1.47656 78.2893 1.47656H72.2446Z" fill="#666666"/>
<path fill-rule="evenodd" clip-rule="evenodd" d="M77.9559 17.8219V68.1141C77.9559 71.2518 75.3879 73.8198 72.2451 73.8198H78.2892C81.432 73.8198 83.9999 71.2518 83.9999 68.1141V17.8219H77.9559Z" fill="#BDBDBD"/>
<path fill-rule="evenodd" clip-rule="evenodd" d="M20.4014 38.6041C20.4014 39.4052 21.0531 40.062 21.8542 40.062H71.4242C72.2253 40.062 72.877 39.4052 72.877 38.6041V29.5383C72.877 28.7366 72.2253 28.0848 71.4242 28.0848H21.8542C21.0531 28.0848 20.4014 28.7366 20.4014 29.5383V38.6041Z" fill="#FF7B83"/>
<path fill-rule="evenodd" clip-rule="evenodd" d="M66.1473 29.5383V38.6041C66.1473 39.4052 65.491 40.062 64.6899 40.062H71.4242C72.2253 40.062 72.877 39.4052 72.877 38.6041V29.5383C72.877 28.7366 72.2253 28.0848 71.4242 28.0848H64.6899C65.491 28.0848 66.1473 28.7366 66.1473 29.5383Z" fill="#E63E49"/>
<path d="M74.0794 10.8922H74.0409C73.3353 10.8922 72.7637 10.3206 72.7637 9.61563C72.7637 8.91003 73.3353 8.33838 74.0409 8.33838H74.0794C74.7843 8.33838 75.356 8.91003 75.356 9.61563C75.356 10.3206 74.7843 10.8922 74.0794 10.8922Z" fill="#51DB61"/>
<path d="M66.8671 10.8922H66.8235C66.1185 10.8922 65.5469 10.3206 65.5469 9.61563C65.5469 8.91003 66.1185 8.33838 66.8235 8.33838H66.8671C67.572 8.33838 68.1437 8.91003 68.1437 9.61563C68.1437 10.3206 67.572 10.8922 66.8671 10.8922Z" fill="#FFC107"/>
<path d="M59.6495 10.9313H59.606C58.901 10.9313 58.3293 10.3596 58.3293 9.65405C58.3293 8.9491 58.901 8.37744 59.606 8.37744H59.6495C60.3551 8.37744 60.9268 8.9491 60.9268 9.65405C60.9268 10.3596 60.3551 10.9313 59.6495 10.9313Z" fill="#FF7B83"/>
<path d="M38.524 11.3075H18.0648C17.3593 11.3075 16.7876 10.7359 16.7876 10.0309C16.7876 9.32532 17.3593 8.75366 18.0648 8.75366H38.524C39.2296 8.75366 39.8012 9.32532 39.8012 10.0309C39.8012 10.7359 39.2296 11.3075 38.524 11.3075Z" fill="#BDBDBD"/>
<path d="M72.877 53.8272H37.0133C36.3077 53.8272 35.7361 53.2555 35.7361 52.5499C35.7361 51.845 36.3077 51.2733 37.0133 51.2733H72.877C73.5826 51.2733 74.1543 51.845 74.1543 52.5499C74.1543 53.2555 73.5826 53.8272 72.877 53.8272Z" fill="#666666"/>
<path d="M72.877 62.7384H37.4331C36.7275 62.7384 36.1565 62.1668 36.1565 61.4612C36.1565 60.7562 36.7275 60.1846 37.4331 60.1846H72.877C73.5826 60.1846 74.1543 60.7562 74.1543 61.4612C74.1543 62.1668 73.5826 62.7384 72.877 62.7384Z" fill="#666666"/>
<path fill-rule="evenodd" clip-rule="evenodd" d="M4.75012 25.5553C2.13858 25.5553 0 27.6939 0 30.3105V76.9767L19.5901 80.7521L37.0134 76.9767V30.3105C37.0134 27.6939 34.8748 25.5553 32.2626 25.5553C25.34 25.5553 11.6728 25.5553 4.75012 25.5553Z" fill="#BBDEFB"/>
<path fill-rule="evenodd" clip-rule="evenodd" d="M28.6033 25.5553C31.2199 25.5553 33.354 27.6939 33.354 30.3105V76.9767H37.0128V30.3105C37.0128 27.6939 34.8742 25.5553 32.2626 25.5553H28.6033Z" fill="#7FBAEB"/>
<path fill-rule="evenodd" clip-rule="evenodd" d="M28.8257 39.5839H7.66159C7.04379 39.5839 6.53687 40.0857 6.53687 40.7086V47.7178C6.53687 48.3356 7.04379 48.8431 7.66159 48.8431H28.8257C29.4435 48.8431 29.9504 48.3356 29.9504 47.7178V40.7086C29.9504 40.0863 29.4435 39.5839 28.8257 39.5839Z" fill="#FF7B83"/>
<path fill-rule="evenodd" clip-rule="evenodd" d="M27.7343 25.5553H9.27856V28.4469C9.27856 29.6152 10.2347 30.5714 11.403 30.5714H25.6105C26.7788 30.5714 27.7343 29.6152 27.7343 28.4469V25.5553Z" fill="#BDBDBD"/>
<path fill-rule="evenodd" clip-rule="evenodd" d="M26.9184 40.7086V47.7178C26.9184 48.3356 26.4115 48.8431 25.7937 48.8431H28.8257C29.4435 48.8431 29.9504 48.3356 29.9504 47.7178V40.7086C29.9504 40.0857 29.4435 39.5839 28.8257 39.5839H25.7937C26.4115 39.5839 26.9184 40.0863 26.9184 40.7086Z" fill="#E63E49"/>
<path fill-rule="evenodd" clip-rule="evenodd" d="M24.9008 25.5553V28.4469C24.9008 29.6152 23.9447 30.5714 22.7764 30.5714H25.6103C26.7786 30.5714 27.7348 29.6152 27.7348 28.4469V25.5553H24.9008Z" fill="#949191"/>
<path d="M29.9503 67.3629H6.53677C5.83118 67.3629 5.25952 66.7913 5.25952 66.0863C5.25952 65.3807 5.83118 64.8091 6.53677 64.8091H29.9503C30.6552 64.8091 31.2269 65.3807 31.2269 66.0863C31.2269 66.7913 30.6552 67.3629 29.9503 67.3629Z" fill="#666666"/>
<path d="M29.9503 59.0458H6.53677C5.83118 59.0458 5.25952 58.4742 5.25952 57.7686C5.25952 57.0636 5.83118 56.4919 6.53677 56.4919H29.9503C30.6552 56.4919 31.2269 57.0636 31.2269 57.7686C31.2269 58.4735 30.6552 59.0458 29.9503 59.0458Z" fill="#666666"/>
<path fill-rule="evenodd" clip-rule="evenodd" d="M37.0134 76.9768H0V77.6042C0 80.2209 2.13858 82.3595 4.75012 82.3595H32.2626C34.8742 82.3595 37.0128 80.2209 37.0128 77.6042V76.9768H37.0134Z" fill="#BDBDBD"/>
<path fill-rule="evenodd" clip-rule="evenodd" d="M33.354 77.7689C33.2669 80.308 31.1623 82.3595 28.6033 82.3595H32.2626C34.8742 82.3595 37.0128 80.2209 37.0128 77.6042V76.9768H33.354V77.6042V77.7689Z" fill="#949191"/>
</svg>
