<svg width="84" height="84" viewBox="0 0 84 84" fill="none" xmlns="http://www.w3.org/2000/svg">
<g clip-path="url(#clip0_5_5181)">
<path d="M78.9296 71.3239H5.07031V25.014C5.07031 22.2136 7.34045 19.9436 10.1407 19.9436H73.8589C76.6593 19.9436 78.9293 22.2137 78.9293 25.014V71.3239H78.9296Z" fill="#655E68"/>
<path d="M73.8592 19.9434H68.7888C71.5892 19.9434 73.8592 22.2135 73.8592 25.0137V71.3238H78.9295V25.0139C78.9297 22.2135 76.6596 19.9434 73.8592 19.9434Z" fill="#544F57"/>
<path d="M11.8311 71.3238V27.3802C11.8311 27.0068 12.1338 26.7041 12.5072 26.7041H71.493C71.8664 26.7041 72.1691 27.0068 72.1691 27.3802V71.324H11.8311V71.3238Z" fill="#E6ECF8"/>
<path d="M6.48063 84.0001H77.5194C81.0986 84.0001 84 81.0986 84 77.5194V72.5072C84 71.8537 83.4702 71.3241 82.8169 71.3241H1.18305C0.529594 71.3241 0 71.8539 0 72.5072V77.5194C0 81.0986 2.90145 84.0001 6.48063 84.0001Z" fill="#8B808E"/>
<path d="M82.8169 71.3239H77.7466C78.4 71.3239 78.9296 71.8534 78.9296 72.5069V77.5192C78.9296 81.0984 76.0282 83.9998 72.449 83.9998H77.5193C81.0985 84 84 81.0985 84 77.5193V72.5071C84 71.8536 83.4702 71.3239 82.8169 71.3239Z" fill="#766C78"/>
<path d="M49.4732 77.0705H34.5271C33.7803 77.0705 33.175 76.4652 33.175 75.7185V71.3241H50.8254V75.7185C50.8252 76.4652 50.22 77.0705 49.4732 77.0705Z" fill="#655E68"/>
<path d="M65.3804 71.3239H18.6196V0.676102C18.6196 0.302695 18.9223 0 19.2957 0H64.7044C65.0779 0 65.3806 0.302695 65.3806 0.676102V71.3239H65.3804Z" fill="#F7F6F7"/>
<path d="M64.7044 0H59.634C60.0074 0 60.3101 0.302695 60.3101 0.676101V71.324H65.3805V0.676101C65.3803 0.302695 65.0776 0 64.7044 0V0Z" fill="#EDEBED"/>
<path d="M59.1269 53.5774H24.873C24.2195 53.5774 23.6899 53.0476 23.6899 52.3943V23.8123C23.6899 23.1589 24.2197 22.6293 24.873 22.6293H59.1268C59.7802 22.6293 60.3098 23.159 60.3098 23.8123V52.3943C60.31 53.0478 59.7802 53.5774 59.1269 53.5774Z" fill="#B3E59F"/>
<path d="M59.127 22.6293H54.0566C54.7101 22.6293 55.2397 23.1589 55.2397 23.8123V52.3943C55.2397 53.0478 54.7099 53.5774 54.0566 53.5774H59.127C59.7805 53.5774 60.31 53.0478 60.31 52.3943V23.8123C60.31 23.1589 59.7803 22.6293 59.127 22.6293Z" fill="#95D6A4"/>
<path d="M59.1269 17.7465H24.873C24.2195 17.7465 23.6899 17.2167 23.6899 16.5635V6.25361C23.6899 5.60015 24.2197 5.07056 24.873 5.07056H59.1268C59.7802 5.07056 60.3098 5.60031 60.3098 6.25361V16.5635C60.31 17.2167 59.7802 17.7465 59.1269 17.7465Z" fill="#A4CCFF"/>
<path d="M59.127 5.07031H54.0566C54.7101 5.07031 55.2397 5.59991 55.2397 6.25337V16.5632C55.2397 17.2167 54.7099 17.7463 54.0566 17.7463H59.127C59.7805 17.7463 60.31 17.2167 60.31 16.5632V6.25353C60.31 5.60007 59.7803 5.07031 59.127 5.07031Z" fill="#8BB3EA"/>
<path d="M59.1269 71.3239H24.873C24.2195 71.3239 23.6899 70.7942 23.6899 70.1409V59.831C23.6899 59.1775 24.2197 58.6479 24.873 58.6479H59.1268C59.7802 58.6479 60.3098 59.1777 60.3098 59.831V70.1409C60.31 70.7943 59.7802 71.3239 59.1269 71.3239Z" fill="#FFE07D"/>
<path d="M59.127 58.6479H54.0566C54.7101 58.6479 55.2397 59.1775 55.2397 59.831V70.1409C55.2397 70.7943 54.7099 71.3239 54.0566 71.3239H59.127C59.7805 71.3239 60.31 70.7943 60.31 70.1409V59.831C60.31 59.1775 59.7803 58.6479 59.127 58.6479Z" fill="#FFD064"/>
<path d="M71.865 25.5905C80.0166 17.4389 85.3142 9.51999 83.6974 7.90323C82.0807 6.28646 74.1618 11.584 66.0101 19.7357C57.8585 27.8874 52.5609 35.8063 54.1777 37.423C55.7944 39.0398 63.7133 33.7422 71.865 25.5905Z" fill="#F3D698"/>
<path d="M83.7096 7.89601C83.0408 7.22729 81.2928 7.74244 78.8969 9.1524C78.4644 12.0849 73.6375 18.7532 66.8048 25.5859C62.0242 30.3667 57.3243 34.1649 53.9275 36.1638C53.844 36.7305 53.9234 37.1584 54.1853 37.4202C55.8023 39.0372 63.7224 33.7388 71.8753 25.5859C80.0282 17.4331 85.3266 9.51301 83.7096 7.89601Z" fill="#EDC46B"/>
<path d="M64.492 26.4736C63.074 25.2208 61.4319 25.1521 60.9802 25.1483C55.827 31.1389 52.9336 36.1686 54.1854 37.4204C55.425 38.66 60.3699 35.8347 66.2838 30.7747C66.2971 30.4548 66.355 28.1197 64.492 26.4736Z" fill="#FAF0D8"/>
<path d="M65.1621 27.1939C65.1619 27.1937 65.1619 27.1935 65.1618 27.1934C60.9618 31.2149 56.935 34.3937 53.9287 36.1631C53.8452 36.7297 53.9233 37.1587 54.1851 37.4204C55.4248 38.66 60.3697 35.8347 66.2836 30.7747C66.3127 30.0996 66.242 28.6245 65.1621 27.1939Z" fill="#F4DDAD"/>
<path d="M57.4161 31.7385C55.1001 31.1024 52.1035 32.2656 50.9193 34.3792C49.8046 36.3688 50.9742 37.8637 49.8138 40.0008C49.1672 41.1916 48.135 41.9599 47.1704 42.4613C46.7017 42.7049 46.697 43.3684 47.1611 43.6205C48.6055 44.4052 51.3286 45.4416 54.2914 44.2997C57.8388 42.9324 59.6503 39.2437 59.495 36.1755C59.4643 35.5692 59.4866 32.3069 57.4161 31.7385Z" fill="#FFC269"/>
<path d="M59.495 36.1757C59.4643 35.5693 59.4866 32.3072 57.4162 31.7386C56.0932 31.3754 54.5483 31.5998 53.2458 32.2526C54.4087 33.3625 54.399 35.6748 54.4245 36.1757C54.5798 39.244 52.7683 42.9327 49.2209 44.3C49.1369 44.3324 49.0532 44.3625 48.9697 44.3914C50.4274 44.8516 52.3053 45.0656 54.2914 44.3C57.8388 42.9327 59.6504 39.244 59.495 36.1757Z" fill="#FFA95F"/>
</g>
<defs>
<clipPath id="clip0_5_5181">
<rect width="84" height="84" fill="white"/>
</clipPath>
</defs>
</svg>
