<svg width="26" height="25" viewBox="0 0 26 25" fill="none" xmlns="http://www.w3.org/2000/svg">
<path d="M0.0971434 1.08312C0.173304 0.543028 0.719629 0.12876 1.26356 0.265786C1.26356 0.265786 24.821 6.15537 24.825 6.15786C25.1872 6.25467 25.4758 6.56414 25.5309 6.94449C25.5827 7.30984 25.3922 7.71341 25.0722 7.90058L16.6321 12.8577C16.6321 12.8577 11.9231 8.96249 11.9148 8.95562C10.9806 8.18293 9.74287 9.63174 10.7008 10.4232L15.4181 14.3253C15.4181 14.3253 12.1361 23.5351 12.1299 23.55C11.9925 23.8883 11.6838 24.1242 11.325 24.1744C10.9351 24.2294 10.5445 23.964 10.371 23.6265C10.371 23.6265 0.175097 1.60385 0.169011 1.59008C0.0937563 1.43169 0.0731929 1.25472 0.0971434 1.08312Z" fill="#F35C29"/>
</svg>
