<svg width="22" height="22" viewBox="0 0 22 22" fill="none" xmlns="http://www.w3.org/2000/svg">
<path d="M19.25 9.625V6.875H17.875V9.625H15.125V11H17.875V13.75H19.25V11H22V9.625H19.25Z" fill="#fff"/>
<path d="M6.875 9.625V12.375H10.7649C10.197 13.9755 8.668 15.125 6.875 15.125C4.60075 15.125 2.75 13.2743 2.75 11C2.75 8.72575 4.60075 6.875 6.875 6.875C7.86088 6.875 8.80962 7.22837 9.54663 7.8705L11.3534 5.797C10.1159 4.719 8.52637 4.125 6.875 4.125C3.08413 4.125 0 7.20913 0 11C0 14.7909 3.08413 17.875 6.875 17.875C10.6659 17.875 13.75 14.7909 13.75 11V9.625H6.875Z" fill="#fff"/>
</svg>
