<svg width="20" height="20" viewBox="0 0 20 20" fill="none" xmlns="http://www.w3.org/2000/svg">
<path d="M2.88906 1.01562C1.51417 1.01562 0.615234 1.91845 0.615234 3.10509C0.615234 4.26552 1.48739 5.19409 2.8363 5.19409H2.8624C4.26418 5.19409 5.13657 4.26552 5.13657 3.10509C5.11036 1.91845 4.26418 1.01562 2.88906 1.01562Z" fill="#F35C29"/>
<path d="M0.852783 6.8457H4.87218V18.9382H0.852783V6.8457Z" fill="#F35C29"/>
<path d="M14.738 6.56152C12.5697 6.56152 11.1157 8.59903 11.1157 8.59903V6.84534H7.09619V18.9379H11.1155V12.1849C11.1155 11.8234 11.1417 11.4625 11.2479 11.2039C11.5384 10.482 12.1997 9.73418 13.3101 9.73418C14.7645 9.73418 15.3462 10.8431 15.3462 12.4687V18.9379H19.3653V12.0042C19.3653 8.28993 17.3823 6.56152 14.738 6.56152Z" fill="#F35C29"/>
</svg>
